<svg width="40" height="27" viewBox="0 0 40 27" fill="none" xmlns="http://www.w3.org/2000/svg">
<path d="M37.5 0.853516H2.5C1.11812 0.853516 0 1.98981 0 3.39397V8.47488H40V3.39397C40 1.98981 38.8819 0.853516 37.5 0.853516Z" fill="black"/>
<path d="M0 13.5557V23.7175C0 25.1217 1.1182 26.2579 2.5 26.2579H37.5C38.8819 26.2579 40 25.1216 40 23.7175V13.5557H0ZM12.5 21.177H5V16.0961H12.5V21.177ZM25 21.177H22.5V18.6366H25V21.177ZM30 21.177H27.5V18.6366H30V21.177ZM35 21.177H32.5V18.6366H35V21.177Z" fill="black"/>
</svg>
