<svg width="18" height="18" viewBox="0 0 18 18" fill="none" xmlns="http://www.w3.org/2000/svg">
<path d="M5.61035 13.7628L7.93535 15.5628C8.23535 15.8628 8.91035 16.0128 9.36035 16.0128H12.2104C13.1104 16.0128 14.0854 15.3378 14.3104 14.4378L16.1104 8.96284C16.4854 7.91284 15.8104 7.01284 14.6854 7.01284H11.6854C11.2354 7.01284 10.8604 6.63784 10.9354 6.11284L11.3104 3.71284C11.4604 3.03784 11.0104 2.28784 10.3354 2.06284C9.73535 1.83784 8.98535 2.13784 8.68535 2.58784L5.61035 7.16284" stroke="#787878" stroke-width="1.5" stroke-miterlimit="10"/>
<path d="M1.78491 13.7623V6.4123C1.78491 5.3623 2.23491 4.9873 3.28491 4.9873H4.03491C5.08491 4.9873 5.53491 5.3623 5.53491 6.4123V13.7623C5.53491 14.8123 5.08491 15.1873 4.03491 15.1873H3.28491C2.23491 15.1873 1.78491 14.8123 1.78491 13.7623Z" stroke="#787878" stroke-width="1.5" stroke-linecap="round" stroke-linejoin="round"/>
</svg>
