<svg width="154" height="45" viewBox="0 0 154 45" fill="none" xmlns="http://www.w3.org/2000/svg">
<path d="M0 0H154V45H0V0Z" fill="#FEFEFE"/>
<path d="M22.5 19.5L18.5 23.9285L18.2917 24.1963M22.5 19.5L27.5 15.4285L31 13M22.5 19.5C24 19.3333 28.2 19.3 33 20.5M31 13C33.5925 13.1198 35.1062 13.2488 35.8963 13.3458M31 13C31 13 34.8637 10.5798 37.4047 8.98815C38.0132 8.60702 37.4685 8.94823 37.5 8.92847M27.5 15.5C27.5 15.5 27.0428 13.6712 27.44 10.888M13.1763 31.62L9.06758 37.4048C9.03206 37.4549 9.05 37.5252 9.10612 37.55C9.81789 37.8642 10 37.5 10 37.5L13 31.9285L14.9563 28.505M14.9563 28.505L15 28.4285L18.2917 24.1963M14.9563 28.505C16.6375 28.5033 21.1 28.9 25.5 30.5M25.5 30.5C26 30.5 26.1209 30.7258 25.5 30.5ZM18.2917 24.1963C18.0556 23.4302 17.7251 21.1583 18.2917 18.199C18.3889 17.7316 18.5111 17.3913 18.2778 18.2725M33 20.5C33.3382 20.5845 33.5 20.5 33 20.5ZM35.8963 13.3458C36.6399 13.4371 36.7424 13.5 36.5 13.5C35.9527 13.3689 35.8695 13.3426 35.8963 13.3458ZM27.44 10.888C27.4582 10.7606 27.4781 10.6313 27.5 10.5C27.5011 10.4632 27.4907 10.4893 27.44 10.888ZM11.5 23.4284C10.6673 26.9768 11.0837 28.7005 13 31.4284C14 32.5951 16.8288 34.278 20.5 33.9284C25 33.5 27.5 36.4284 30.5 32.4284C32.9 29.2284 35.1667 27.7618 36 27.4284C37.1667 27.0951 39.3 25.6284 38.5 22.4284C37.5068 18.4556 41.4458 15.9625 40.0299 14.4592C40.0117 14.4399 40.0001 14.4169 39.9998 14.3904C39.9884 13.2855 39.524 7.41646 41.5 6.42843C43.5 5.42843 35 7.92843 33 6.42843C31 4.92843 31.5 7.92844 23 6.92844C21.5 7.42844 20.5 6.92847 17.5 11.4285C16 12.4285 13 13.9285 12.5 14.9285C12 15.9285 11 16.4284 11.5 23.4284Z" stroke="black" stroke-width="0.5"/>
<path d="M133 10V29M133 35V29M133 29L138.25 24.0714M145.25 17.5L138.25 24.0714M138.25 24.0714L145.75 34.5" stroke="black" stroke-width="2"/>
<path d="M128 10V13" stroke="black" stroke-width="2"/>
<path d="M128 35V18" stroke="black" stroke-width="2"/>
<path d="M114 35V18" stroke="black" stroke-width="2"/>
<path d="M94 18H108.854L95.5 34H110.5" stroke="black" stroke-width="2"/>
<path d="M74.6698 19.0055C75.6698 18.3389 78.1698 17.0055 80.1698 17.0055C82.6698 17.0055 87.6698 16.5055 87.6698 25.0055C87.6698 25.3257 87.6698 25.6613 87.6698 26.0056M87.6698 26.0056C84.5032 25.0056 76.9198 24.2056 74.9198 27.0056C74.0032 28.3389 72.9698 31.5056 76.1698 33.5056C79.1698 34.5056 84.1698 34.0056 85.6698 32.0056C87.2698 29.9337 87.6698 29.4757 87.6698 29.5056M87.6698 26.0056C87.6698 27.157 87.6698 28.4065 87.6698 29.5056M87.6698 29.5056C87.6698 30.5421 87.6698 31.4448 87.6698 32.0056C87.6698 32.6723 87.9698 34.0056 89.1698 34.0056H90" stroke="black" stroke-width="2"/>
<path d="M53.2469 10.0001V21.5324M64.9078 21.5324C66.0744 22.0324 69.5 23.5001 69.7154 26.8054C69.7154 31.9603 67.0807 32.8586 65.0977 33.3534C64.7011 33.4524 64.2933 33.5001 63.8845 33.5001H53.2469V21.5324M64.9078 21.5324C66.4078 20.199 68 18.5001 68 15.5001C68 14.0001 66.5 10.5 63.5 10H52M64.9078 21.5324H53.2469" stroke="black" stroke-width="2.5"/>
<path d="M114 10V13" stroke="black" stroke-width="2"/>
<path d="M119 10L119 30.9195C119 32.379 119.25 35.298 124.75 33.352" stroke="black" stroke-width="2"/>
</svg>
