<svg width="29" height="28" viewBox="0 0 29 28" fill="none" xmlns="http://www.w3.org/2000/svg">
<rect x="0.125" width="28.75" height="29" fill="#F40000"/>
<path fill-rule="evenodd" clip-rule="evenodd" d="M8.21991 19.6162C7.93797 19.5321 7.68073 19.3824 7.46988 19.1798C7.25902 18.9772 7.10076 18.7276 7.00843 18.4521C6.48085 17.0283 6.32453 11.083 7.34061 9.90935C7.67878 9.52755 8.15623 9.29248 8.66933 9.25518C11.3952 8.96657 19.8169 9.00505 20.7842 9.35138C21.0562 9.43828 21.3048 9.58469 21.5112 9.77961C21.7176 9.97454 21.8765 10.2129 21.9761 10.4769C22.5525 11.9488 22.5721 17.2977 21.8979 18.7119C21.7191 19.08 21.4197 19.3782 21.048 19.5585C20.0319 20.0587 9.56818 20.0491 8.21991 19.6162ZM12.548 16.8263L17.433 14.3251L12.548 11.8045V16.8263Z" fill="white"/>
</svg>
