<svg width="34" height="34" viewBox="0 0 34 34" fill="none" xmlns="http://www.w3.org/2000/svg">
<path d="M13.6284 22.667L15.7534 24.792L20.3576 20.542" stroke="#3A3A3A" stroke-width="1.5" stroke-linecap="round" stroke-linejoin="round"/>
<path d="M12.4814 2.83301L7.35303 7.97551" stroke="#3A3A3A" stroke-width="1.5" stroke-miterlimit="10" stroke-linecap="round" stroke-linejoin="round"/>
<path d="M21.5198 2.83301L26.6481 7.97551" stroke="#3A3A3A" stroke-width="1.5" stroke-miterlimit="10" stroke-linecap="round" stroke-linejoin="round"/>
<path d="M2.83325 11.1204C2.83325 8.49961 4.23575 8.28711 5.97825 8.28711H28.0216C29.7641 8.28711 31.1666 8.49961 31.1666 11.1204C31.1666 14.1663 29.7641 13.9538 28.0216 13.9538H5.97825C4.23575 13.9538 2.83325 14.1663 2.83325 11.1204Z" stroke="#3A3A3A" stroke-width="1.5"/>
<path d="M4.95825 14.167L6.95575 26.407C7.40908 29.1553 8.49992 31.167 12.5516 31.167H21.0941C25.4999 31.167 26.1516 29.2403 26.6616 26.577L29.0416 14.167" stroke="#3A3A3A" stroke-width="1.5" stroke-linecap="round"/>
</svg>
