<svg width="29" height="28" viewBox="0 0 29 28" fill="none" xmlns="http://www.w3.org/2000/svg">
<rect x="0.25" width="28.75" height="29" fill="url(#paint0_radial_486_363)"/>
<path d="M14.625 8.56024C16.5301 8.56024 16.7899 8.56024 17.5693 8.56024C18.262 8.56024 18.6084 8.73494 18.8682 8.82229C19.2146 8.99699 19.4744 9.08434 19.7342 9.34639C19.994 9.60843 20.1672 9.87048 20.2538 10.2199C20.3404 10.4819 20.427 10.8313 20.5135 11.5301C20.5135 12.3163 20.5135 12.491 20.5135 14.5C20.5135 16.509 20.5135 16.6837 20.5135 17.4699C20.5135 18.1687 20.3404 18.5181 20.2538 18.7801C20.0806 19.1295 19.994 19.3916 19.7342 19.6536C19.4744 19.9157 19.2146 20.0904 18.8682 20.1777C18.6084 20.2651 18.262 20.3524 17.5693 20.4398C16.7899 20.4398 16.6167 20.4398 14.625 20.4398C12.6333 20.4398 12.4601 20.4398 11.6807 20.4398C10.988 20.4398 10.6416 20.2651 10.3818 20.1777C10.0354 20.003 9.7756 19.9157 9.51581 19.6536C9.25602 19.3916 9.08283 19.1295 8.99623 18.7801C8.90964 18.5181 8.82304 18.1687 8.73645 17.4699C8.73645 16.6837 8.73645 16.509 8.73645 14.5C8.73645 12.491 8.73645 12.3163 8.73645 11.5301C8.73645 10.8313 8.90964 10.4819 8.99623 10.2199C9.16943 9.87048 9.25602 9.60843 9.51581 9.34639C9.7756 9.08434 10.0354 8.90964 10.3818 8.82229C10.6416 8.73494 10.988 8.64759 11.6807 8.56024C12.4601 8.56024 12.7199 8.56024 14.625 8.56024ZM14.625 7.25C12.6333 7.25 12.4601 7.25 11.6807 7.25C10.9014 7.25 10.3818 7.4247 9.94879 7.5994C9.51581 7.7741 9.08283 8.03615 8.64985 8.47289C8.21687 8.90964 8.04368 9.25904 7.78389 9.78313C7.61069 10.2199 7.5241 10.744 7.4375 11.5301C7.4375 12.3163 7.4375 12.5783 7.4375 14.5C7.4375 16.509 7.4375 16.6837 7.4375 17.4699C7.4375 18.256 7.61069 18.7801 7.78389 19.2169C7.95708 19.6536 8.21687 20.0904 8.64985 20.5271C9.08283 20.9639 9.42922 21.1386 9.94879 21.4006C10.3818 21.5753 10.9014 21.6627 11.6807 21.75C12.4601 21.75 12.7199 21.75 14.625 21.75C16.5301 21.75 16.7899 21.75 17.5693 21.75C18.3486 21.75 18.8682 21.5753 19.3012 21.4006C19.7342 21.2259 20.1672 20.9639 20.6001 20.5271C21.0331 20.0904 21.2063 19.741 21.4661 19.2169C21.6393 18.7801 21.7259 18.256 21.8125 17.4699C21.8125 16.6837 21.8125 16.4217 21.8125 14.5C21.8125 12.5783 21.8125 12.3163 21.8125 11.5301C21.8125 10.744 21.6393 10.2199 21.4661 9.78313C21.2929 9.34639 21.0331 8.90964 20.6001 8.47289C20.1672 8.03615 19.8208 7.86145 19.3012 7.5994C18.8682 7.4247 18.3486 7.33735 17.5693 7.25C16.7899 7.25 16.6167 7.25 14.625 7.25Z" fill="white"/>
<path d="M14.625 10.744C12.5467 10.744 10.9014 12.4036 10.9014 14.5C10.9014 16.5964 12.5467 18.256 14.625 18.256C16.7033 18.256 18.3486 16.5964 18.3486 14.5C18.3486 12.4036 16.7033 10.744 14.625 10.744ZM14.625 16.9458C13.3261 16.9458 12.2003 15.8976 12.2003 14.5C12.2003 13.1898 13.2395 12.0542 14.625 12.0542C15.9239 12.0542 17.0497 13.1024 17.0497 14.5C17.0497 15.8102 15.9239 16.9458 14.625 16.9458Z" fill="white"/>
<path d="M18.4352 11.5301C18.9135 11.5301 19.3012 11.139 19.3012 10.6566C19.3012 10.1742 18.9135 9.78313 18.4352 9.78313C17.957 9.78313 17.5693 10.1742 17.5693 10.6566C17.5693 11.139 17.957 11.5301 18.4352 11.5301Z" fill="white"/>
<defs>
<radialGradient id="paint0_radial_486_363" cx="0" cy="0" r="1" gradientUnits="userSpaceOnUse" gradientTransform="translate(29.5784 0.589063) scale(66.3923 66.9696)">
<stop stop-color="#F9ED32"/>
<stop offset="0.36" stop-color="#EE2A7B"/>
<stop offset="0.44" stop-color="#D22A8A"/>
<stop offset="0.6" stop-color="#8B2AB2"/>
<stop offset="0.83" stop-color="#1B2AF0"/>
<stop offset="0.88" stop-color="#002AFF"/>
</radialGradient>
</defs>
</svg>
