<svg width="35" height="33" viewBox="0 0 35 33" fill="none" xmlns="http://www.w3.org/2000/svg">
<path d="M5.00001 26.4284C3.08368 23.7005 2.66733 21.9768 3.50001 18.4284C3.00001 11.4284 4.00001 10.9285 4.50001 9.92847C5.00001 8.92847 8.00001 7.42847 9.50001 6.42847C12.5 1.92847 13.5 2.42844 15 1.92844C23.5 2.92844 23 -0.0715697 25 1.42843C27 2.92843 35.5 0.42843 33.5 1.42843C31.524 2.41646 31.9884 8.28546 31.9998 9.39037C32.0001 9.41689 32.0117 9.43988 32.0299 9.45918C33.4458 10.9625 29.5068 13.4556 30.5 17.4284C31.3 20.6284 29.1667 22.0951 28 22.4284C27.1667 22.7618 24.9 24.2284 22.5 27.4284C19.5 31.4284 17 28.5 12.5 28.9284C9.02544 29.2592 6.30547 27.7695 5.17629 26.62L5 26.9285L2 32.5C2 32.5 1.81789 32.8642 1.10612 32.55C1.05 32.5252 1.03206 32.4549 1.06758 32.4048L5.17629 26.62C5.11239 26.5549 5.05358 26.4909 5.00001 26.4284Z" fill="#447A00"/>
<path d="M14.5 14.5L10.5 18.9285L10.2917 19.1963M14.5 14.5L19.5 10.4285L23 8M14.5 14.5C16 14.3333 20.2 14.3 25 15.5M23 8C25.5925 8.11976 27.1062 8.24881 27.8963 8.34581M23 8C23 8 26.8637 5.57979 29.4047 3.98815C30.0132 3.60702 29.4685 3.94823 29.5 3.92847M19.5 10.5C19.5 10.5 19.0428 8.67119 19.44 5.88797M5.17629 26.62L1.06758 32.4048C1.03206 32.4549 1.05 32.5252 1.10612 32.55C1.81789 32.8642 2 32.5 2 32.5L5 26.9285L6.95626 23.505M6.95626 23.505L7 23.4285L10.2917 19.1963M6.95626 23.505C8.63751 23.5033 13.1 23.9 17.5 25.5M17.5 25.5C18 25.5 18.1209 25.7258 17.5 25.5ZM10.2917 19.1963C10.0556 18.4302 9.72505 16.1583 10.2917 13.199C10.3889 12.7316 10.5111 12.3913 10.2778 13.2725M25 15.5C25.3382 15.5845 25.5 15.5 25 15.5ZM27.8963 8.34581C28.6399 8.43711 28.7424 8.5 28.5 8.5C27.9527 8.3689 27.8695 8.34258 27.8963 8.34581ZM19.44 5.88797C19.4582 5.76062 19.4781 5.63126 19.5 5.5C19.5011 5.46321 19.4907 5.4893 19.44 5.88797ZM3.50001 18.4284C2.66733 21.9768 3.08368 23.7005 5.00001 26.4284C6.00001 27.5951 8.8288 29.278 12.5 28.9284C17 28.5 19.5 31.4284 22.5 27.4284C24.9 24.2284 27.1667 22.7618 28 22.4284C29.1667 22.0951 31.3 20.6284 30.5 17.4284C29.5068 13.4556 33.4458 10.9625 32.0299 9.45918C32.0117 9.43988 32.0001 9.41689 31.9998 9.39037C31.9884 8.28546 31.524 2.41646 33.5 1.42843C35.5 0.42843 27 2.92843 25 1.42843C23 -0.0715696 23.5 2.92844 15 1.92844C13.5 2.42844 12.5 1.92847 9.50001 6.42847C8.00001 7.42847 5.00001 8.92847 4.50001 9.92847C4.00001 10.9285 3.00001 11.4284 3.50001 18.4284Z" stroke="black" stroke-width="0.5"/>
</svg>
